<?xml version="1.0" encoding="UTF-8"?>
<svg id="Layer_1" data-name="Layer 1" xmlns="http://www.w3.org/2000/svg" viewBox="0 0 1920 1080">
  <defs>
    <style>
      .cls-1 {
        fill: #f3f3f3;
      }
    </style>
  </defs>
  <g>
    <path class="cls-1" d="m301.74,371.68c0-9.91,8.04-17.95,17.95-17.95s17.95,8.04,17.95,17.95"/>
    <path class="cls-1" d="m337.72,371.66c0-17.28,14.01-31.29,31.29-31.29s31.29,14.01,31.29,31.29"/>
  </g>
  <g>
    <path class="cls-1" d="m1731.07,1025.44c0-9.91,8.04-17.95,17.95-17.95s17.95,8.04,17.95,17.95"/>
    <path class="cls-1" d="m1767.05,1025.42c0-17.28,14.01-31.29,31.29-31.29s31.29,14.01,31.29,31.29"/>
    <path class="cls-1" d="m1829.05,1025.44c0-9.91,8.04-17.95,17.95-17.95s17.95,8.04,17.95,17.95"/>
  </g>
  <g>
    <path class="cls-1" d="m739.25,895.89c0-9.91,8.04-17.95,17.95-17.95s17.95,8.04,17.95,17.95"/>
    <path class="cls-1" d="m775.23,895.87c0-17.28,14.01-31.29,31.29-31.29s31.29,14.01,31.29,31.29"/>
    <path class="cls-1" d="m837.23,895.89c0-9.91,8.04-17.95,17.95-17.95s17.95,8.04,17.95,17.95"/>
  </g>
  <g>
    <path class="cls-1" d="m1509.72,624.16c0-9.91,8.04-17.95,17.95-17.95s17.95,8.04,17.95,17.95"/>
    <path class="cls-1" d="m1545.71,624.13c0-17.28,14.01-31.29,31.29-31.29s31.29,14.01,31.29,31.29"/>
  </g>
  <g>
    <path class="cls-1" d="m1149.06,229.36c0-9.91,8.04-17.95,17.95-17.95s17.95,8.04,17.95,17.95"/>
    <path class="cls-1" d="m1185.04,229.34c0-17.28,14.01-31.29,31.29-31.29s31.29,14.01,31.29,31.29"/>
    <path class="cls-1" d="m1247.04,229.36c0-9.91,8.04-17.95,17.95-17.95s17.95,8.04,17.95,17.95"/>
  </g>
  <g>
    <path class="cls-1" d="m114.72,768.16c0-9.91,8.04-17.95,17.95-17.95s17.95,8.04,17.95,17.95"/>
    <path class="cls-1" d="m150.71,768.13c0-17.28,14.01-31.29,31.29-31.29s31.29,14.01,31.29,31.29"/>
  </g>
</svg>