<?xml version="1.0" encoding="UTF-8"?>
<svg id="Layer_1" data-name="Layer 1" xmlns="http://www.w3.org/2000/svg" viewBox="0 0 1920 1080">
  <g>
    <path class="cls-2" d="m437.53,867.24c-1.28-2.61-4.99-2.61-6.27,0l-6.74,13.68-15.07,2.2c-2.85.41-4,3.93-1.94,5.95l10.9,10.66-2.56,15.04c-.49,2.85,2.5,5.04,5.07,3.68l13.48-7.1,13.48,7.1c2.56,1.35,5.56-.83,5.07-3.68l-2.58-15.04,10.9-10.66c2.07-2.02.93-5.55-1.94-5.95l-15.07-2.2-6.74-13.68h0Z"/>
    <path class="cls-1" d="m451.89,859.47l2.01,7.03c.19.67.8,1.12,1.48,1.12s1.3-.45,1.48-1.12l2.01-7.03,7.03-2.01c.67-.19,1.12-.8,1.12-1.48s-.45-1.3-1.12-1.48l-7.03-2.01-2.01-7.03c-.19-.67-.8-1.12-1.48-1.12s-1.3.45-1.48,1.12l-2.01,7.03-7.03,2.01c-.67.19-1.12.8-1.12,1.48s.45,1.3,1.12,1.48l7.03,2.01Zm17,20.26l1.6,5.62c.15.52.64.9,1.19.9s1.03-.36,1.19-.9l1.6-5.62,5.62-1.6c.52-.15.9-.64.9-1.19s-.36-1.03-.9-1.19l-5.62-1.6-1.6-5.62c-.15-.52-.64-.9-1.19-.9s-1.03.36-1.19.9l-1.6,5.62-5.62,1.6c-.52.15-.9.64-.9,1.19s.36,1.03.9,1.19l5.62,1.6h0Z"/>
  </g>
  <g>
    <path class="cls-2" d="m538.8,126.32c-1.28-2.61-4.99-2.61-6.27,0l-6.74,13.68-15.07,2.2c-2.85.41-4,3.93-1.94,5.95l10.9,10.66-2.56,15.04c-.49,2.85,2.5,5.04,5.07,3.68l13.48-7.1,13.48,7.1c2.56,1.35,5.56-.83,5.07-3.68l-2.58-15.04,10.9-10.66c2.07-2.02.93-5.55-1.94-5.95l-15.07-2.2-6.74-13.68h0Z"/>
    <path class="cls-1" d="m553.15,118.54l2.01,7.03c.19.67.8,1.12,1.48,1.12s1.3-.45,1.48-1.12l2.01-7.03,7.03-2.01c.67-.19,1.12-.8,1.12-1.48s-.45-1.3-1.12-1.48l-7.03-2.01-2.01-7.03c-.19-.67-.8-1.12-1.48-1.12s-1.3.45-1.48,1.12l-2.01,7.03-7.03,2.01c-.67.19-1.12.8-1.12,1.48s.45,1.3,1.12,1.48l7.03,2.01Zm17,20.26l1.6,5.62c.15.52.64.9,1.19.9s1.03-.36,1.19-.9l1.6-5.62,5.62-1.6c.52-.15.9-.64.9-1.19s-.36-1.03-.9-1.19l-5.62-1.6-1.6-5.62c-.15-.52-.64-.9-1.19-.9s-1.03.36-1.19.9l-1.6,5.62-5.62,1.6c-.52.15-.9.64-.9,1.19s.36,1.03.9,1.19l5.62,1.6h0Z"/>
  </g>
  <g>
    <path class="cls-2" d="m1242.31,663.15c-1.28-2.61-4.99-2.61-6.27,0l-6.74,13.68-15.07,2.2c-2.85.41-4,3.93-1.94,5.95l10.9,10.66-2.56,15.04c-.49,2.85,2.5,5.04,5.07,3.68l13.48-7.1,13.48,7.1c2.56,1.35,5.56-.83,5.07-3.68l-2.58-15.04,10.9-10.66c2.07-2.02.93-5.55-1.94-5.95l-15.07-2.2-6.74-13.68h0Z"/>
    <path class="cls-1" d="m1256.66,655.38l2.01,7.03c.19.67.8,1.12,1.48,1.12s1.3-.45,1.48-1.12l2.01-7.03,7.03-2.01c.67-.19,1.12-.8,1.12-1.48s-.45-1.3-1.12-1.48l-7.03-2.01-2.01-7.03c-.19-.67-.8-1.12-1.48-1.12s-1.3.45-1.48,1.12l-2.01,7.03-7.03,2.01c-.67.19-1.12.8-1.12,1.48s.45,1.3,1.12,1.48l7.03,2.01Zm17,20.26l1.6,5.62c.15.52.64.9,1.19.9s1.03-.36,1.19-.9l1.6-5.62,5.62-1.6c.52-.15.9-.64.9-1.19s-.36-1.03-.9-1.19l-5.62-1.6-1.6-5.62c-.15-.52-.64-.9-1.19-.9s-1.03.36-1.19.9l-1.6,5.62-5.62,1.6c-.52.15-.9.64-.9,1.19s.36,1.03.9,1.19l5.62,1.6h0Z"/>
  </g>
  <g>
    <path class="cls-2" d="m813.31,841.62c-1.28-2.61-4.99-2.61-6.27,0l-6.74,13.68-15.07,2.2c-2.85.41-4,3.93-1.94,5.95l10.9,10.66-2.56,15.04c-.49,2.85,2.5,5.04,5.07,3.68l13.48-7.1,13.48,7.1c2.56,1.35,5.56-.83,5.07-3.68l-2.58-15.04,10.9-10.66c2.07-2.02.93-5.55-1.94-5.95l-15.07-2.2-6.74-13.68h0Z"/>
    <path class="cls-1" d="m827.66,833.85l2.01,7.03c.19.67.8,1.12,1.48,1.12s1.3-.45,1.48-1.12l2.01-7.03,7.03-2.01c.67-.19,1.12-.8,1.12-1.48s-.45-1.3-1.12-1.48l-7.03-2.01-2.01-7.03c-.19-.67-.8-1.12-1.48-1.12s-1.3.45-1.48,1.12l-2.01,7.03-7.03,2.01c-.67.19-1.12.8-1.12,1.48s.45,1.3,1.12,1.48l7.03,2.01Zm17,20.26l1.6,5.62c.15.52.64.9,1.19.9s1.03-.36,1.19-.9l1.6-5.62,5.62-1.6c.52-.15.9-.64.9-1.19s-.36-1.03-.9-1.19l-5.62-1.6-1.6-5.62c-.15-.52-.64-.9-1.19-.9s-1.03.36-1.19.9l-1.6,5.62-5.62,1.6c-.52.15-.9.64-.9,1.19s.36,1.03.9,1.19l5.62,1.6h0Z"/>
  </g>
  <g>
    <path class="cls-2" d="m468.31,519.84c-1.28-2.61-4.99-2.61-6.27,0l-6.74,13.68-15.07,2.2c-2.85.41-4,3.93-1.94,5.95l10.9,10.66-2.56,15.04c-.49,2.85,2.5,5.04,5.07,3.68l13.48-7.1,13.48,7.1c2.56,1.35,5.56-.83,5.07-3.68l-2.58-15.04,10.9-10.66c2.07-2.02.93-5.55-1.94-5.95l-15.07-2.2-6.74-13.68h0Z"/>
    <path class="cls-1" d="m482.66,512.07l2.01,7.03c.19.67.8,1.12,1.48,1.12s1.3-.45,1.48-1.12l2.01-7.03,7.03-2.01c.67-.19,1.12-.8,1.12-1.48s-.45-1.3-1.12-1.48l-7.03-2.01-2.01-7.03c-.19-.67-.8-1.12-1.48-1.12s-1.3.45-1.48,1.12l-2.01,7.03-7.03,2.01c-.67.19-1.12.8-1.12,1.48s.45,1.3,1.12,1.48l7.03,2.01Zm17,20.26l1.6,5.62c.15.52.64.9,1.19.9s1.03-.36,1.19-.9l1.6-5.62,5.62-1.6c.52-.15.9-.64.9-1.19s-.36-1.03-.9-1.19l-5.62-1.6-1.6-5.62c-.15-.52-.64-.9-1.19-.9s-1.03.36-1.19.9l-1.6,5.62-5.62,1.6c-.52.15-.9.64-.9,1.19s.36,1.03.9,1.19l5.62,1.6h0Z"/>
  </g>
  <g>
    <path class="cls-2" d="m1137.31,250.17c-1.28-2.61-4.99-2.61-6.27,0l-6.74,13.68-15.07,2.2c-2.85.41-4,3.93-1.94,5.95l10.9,10.66-2.56,15.04c-.49,2.85,2.5,5.04,5.07,3.68l13.48-7.1,13.48,7.1c2.56,1.35,5.56-.83,5.07-3.68l-2.58-15.04,10.9-10.66c2.07-2.02.93-5.55-1.94-5.95l-15.07-2.2-6.74-13.68h0Z"/>
    <path class="cls-1" d="m1151.66,242.39l2.01,7.03c.19.67.8,1.12,1.48,1.12s1.3-.45,1.48-1.12l2.01-7.03,7.03-2.01c.67-.19,1.12-.8,1.12-1.48s-.45-1.3-1.12-1.48l-7.03-2.01-2.01-7.03c-.19-.67-.8-1.12-1.48-1.12s-1.3.45-1.48,1.12l-2.01,7.03-7.03,2.01c-.67.19-1.12.8-1.12,1.48s.45,1.3,1.12,1.48l7.03,2.01Zm17,20.26l1.6,5.62c.15.52.64.9,1.19.9s1.03-.36,1.19-.9l1.6-5.62,5.62-1.6c.52-.15.9-.64.9-1.19s-.36-1.03-.9-1.19l-5.62-1.6-1.6-5.62c-.15-.52-.64-.9-1.19-.9s-1.03.36-1.19.9l-1.6,5.62-5.62,1.6c-.52.15-.9.64-.9,1.19s.36,1.03.9,1.19l5.62,1.6h0Z"/>
  </g>
  <g>
    <path class="cls-2" d="m1553.16,386.42c-1.28-2.61-4.99-2.61-6.27,0l-6.74,13.68-15.07,2.2c-2.85.41-4,3.93-1.94,5.95l10.9,10.66-2.56,15.04c-.49,2.85,2.5,5.04,5.07,3.68l13.48-7.1,13.48,7.1c2.56,1.35,5.56-.83,5.07-3.68l-2.58-15.04,10.9-10.66c2.07-2.02.93-5.55-1.94-5.95l-15.07-2.2-6.74-13.68h0Z"/>
    <path class="cls-1" d="m1567.51,378.65l2.01,7.03c.19.67.8,1.12,1.48,1.12s1.3-.45,1.48-1.12l2.01-7.03,7.03-2.01c.67-.19,1.12-.8,1.12-1.48s-.45-1.3-1.12-1.48l-7.03-2.01-2.01-7.03c-.19-.67-.8-1.12-1.48-1.12s-1.3.45-1.48,1.12l-2.01,7.03-7.03,2.01c-.67.19-1.12.8-1.12,1.48s.45,1.3,1.12,1.48l7.03,2.01Zm17,20.26l1.6,5.62c.15.52.64.9,1.19.9s1.03-.36,1.19-.9l1.6-5.62,5.62-1.6c.52-.15.9-.64.9-1.19s-.36-1.03-.9-1.19l-5.62-1.6-1.6-5.62c-.15-.52-.64-.9-1.19-.9s-1.03.36-1.19.9l-1.6,5.62-5.62,1.6c-.52.15-.9.64-.9,1.19s.36,1.03.9,1.19l5.62,1.6h0Z"/>
  </g>
  <g>
    <path class="cls-2" d="m105.31,338.67c-1.28-2.61-4.99-2.61-6.27,0l-6.74,13.68-15.07,2.2c-2.85.41-4,3.93-1.94,5.95l10.9,10.66-2.56,15.04c-.49,2.85,2.5,5.04,5.07,3.68l13.48-7.1,13.48,7.1c2.56,1.35,5.56-.83,5.07-3.68l-2.58-15.04,10.9-10.66c2.07-2.02.93-5.55-1.94-5.95l-15.07-2.2-6.74-13.68h0Z"/>
    <path class="cls-1" d="m119.66,330.9l2.01,7.03c.19.67.8,1.12,1.48,1.12s1.3-.45,1.48-1.12l2.01-7.03,7.03-2.01c.67-.19,1.12-.8,1.12-1.48s-.45-1.3-1.12-1.48l-7.03-2.01-2.01-7.03c-.19-.67-.8-1.12-1.48-1.12s-1.3.45-1.48,1.12l-2.01,7.03-7.03,2.01c-.67.19-1.12.8-1.12,1.48s.45,1.3,1.12,1.48l7.03,2.01Zm17,20.26l1.6,5.62c.15.52.64.9,1.19.9s1.03-.36,1.19-.9l1.6-5.62,5.62-1.6c.52-.15.9-.64.9-1.19s-.36-1.03-.9-1.19l-5.62-1.6-1.6-5.62c-.15-.52-.64-.9-1.19-.9s-1.03.36-1.19.9l-1.6,5.62-5.62,1.6c-.52.15-.9.64-.9,1.19s.36,1.03.9,1.19l5.62,1.6h0Z"/>
  </g>
  <g>
    <path class="cls-2" d="m1760.31,914.99c-1.28-2.61-4.99-2.61-6.27,0l-6.74,13.68-15.07,2.2c-2.85.41-4,3.93-1.94,5.95l10.9,10.66-2.56,15.04c-.49,2.85,2.5,5.04,5.07,3.68l13.48-7.1,13.48,7.1c2.56,1.35,5.56-.83,5.07-3.68l-2.58-15.04,10.9-10.66c2.07-2.02.93-5.55-1.94-5.95l-15.07-2.2-6.74-13.68h0Z"/>
    <path class="cls-1" d="m1774.66,907.22l2.01,7.03c.19.67.8,1.12,1.48,1.12s1.3-.45,1.48-1.12l2.01-7.03,7.03-2.01c.67-.19,1.12-.8,1.12-1.48s-.45-1.3-1.12-1.48l-7.03-2.01-2.01-7.03c-.19-.67-.8-1.12-1.48-1.12s-1.3.45-1.48,1.12l-2.01,7.03-7.03,2.01c-.67.19-1.12.8-1.12,1.48s.45,1.3,1.12,1.48l7.03,2.01Zm17,20.26l1.6,5.62c.15.52.64.9,1.19.9s1.03-.36,1.19-.9l1.6-5.62,5.62-1.6c.52-.15.9-.64.9-1.19s-.36-1.03-.9-1.19l-5.62-1.6-1.6-5.62c-.15-.52-.64-.9-1.19-.9s-1.03.36-1.19.9l-1.6,5.62-5.62,1.6c-.52.15-.9.64-.9,1.19s.36,1.03.9,1.19l5.62,1.6h0Z"/>
  </g>
</svg>